<svg width="32" height="32" viewBox="0 0 32 32" fill="none" xmlns="http://www.w3.org/2000/svg">
<g filter="url(#filter0_d_0_1852)">
<path d="M26.675 0H5.325C4.593 0 4 0.593 4 1.325V22.676C4 23.407 4.593 24 5.325 24H16.82V14.706H13.692V11.084H16.82V8.413C16.82 5.313 18.713 3.625 21.479 3.625C22.804 3.625 23.942 3.724 24.274 3.768V7.008L22.356 7.009C20.852 7.009 20.561 7.724 20.561 8.772V11.085H24.148L23.681 14.707H20.561V24H26.677C27.407 24 28 23.407 28 22.675V1.325C28 0.593 27.407 0 26.675 0Z" fill="#FEFCF7"/>
</g>
<defs>
<filter id="filter0_d_0_1852" x="0" y="0" width="32" height="32" filterUnits="userSpaceOnUse" color-interpolation-filters="sRGB">
<feFlood flood-opacity="0" result="BackgroundImageFix"/>
<feColorMatrix in="SourceAlpha" type="matrix" values="0 0 0 0 0 0 0 0 0 0 0 0 0 0 0 0 0 0 127 0" result="hardAlpha"/>
<feOffset dy="4"/>
<feGaussianBlur stdDeviation="2"/>
<feComposite in2="hardAlpha" operator="out"/>
<feColorMatrix type="matrix" values="0 0 0 0 0 0 0 0 0 0 0 0 0 0 0 0 0 0 0.25 0"/>
<feBlend mode="normal" in2="BackgroundImageFix" result="effect1_dropShadow_0_1852"/>
<feBlend mode="normal" in="SourceGraphic" in2="effect1_dropShadow_0_1852" result="shape"/>
</filter>
</defs>
</svg>
