<svg width="32" height="32" viewBox="0 0 32 32" fill="none" xmlns="http://www.w3.org/2000/svg">
<g filter="url(#filter0_d_0_1592)">
<path fill-rule="evenodd" clip-rule="evenodd" d="M17.4893 3.00268C13.9749 -0.508874 8.76554 -1.01438 5.87661 1.87766C2.98617 4.76821 3.49166 9.97779 7.00008 13.4908C7.93606 14.4269 9.01454 15.1424 10.153 15.6554C10.5265 13.4848 11.5975 11.3983 13.2234 9.68528C12.685 9.49328 12.133 9.33128 11.557 9.17377C8.14606 8.23776 6.4511 5.39222 6.05511 2.05617C6.38262 2.45002 6.68082 2.86313 6.97814 3.27503C7.555 4.0742 8.12855 4.86879 8.90654 5.50922C10.1168 6.50576 11.4452 6.89045 12.8986 7.3113C12.9547 7.32755 13.011 7.34385 13.0674 7.36025C13.7559 7.55975 14.3544 7.85525 14.9034 8.20026C16.3464 7.14574 17.9738 6.44373 19.6538 6.15423C19.1423 5.01571 18.4253 3.93869 17.4893 3.00268ZM11.5465 16.4894C11.77 14.3159 12.823 12.1903 14.5104 10.5028C18.0248 6.99124 23.2342 6.48423 26.1232 9.37778C29.0136 12.2683 28.5096 17.4779 24.9967 20.991C23.3092 22.6785 21.1838 23.7315 19.0103 23.9565C18.7208 23.985 18.4343 24 18.1538 24C16.2849 24 14.6154 23.3445 13.3854 22.1145C11.9695 20.7 11.3155 18.7019 11.5465 16.4894ZM16.6869 18.2729C17.8388 17.3939 19.0853 17.0459 20.4413 16.6754C23.8522 15.7394 25.5457 12.8938 25.9432 9.55778C25.6184 9.94944 25.3224 10.3598 25.0273 10.7688C24.4487 11.5709 23.8735 12.3681 23.0917 13.0108C21.8778 14.009 20.5463 14.3943 19.0864 14.8168L18.9308 14.8619C15.5934 15.8309 13.9434 18.6524 13.5624 21.936C13.8912 21.541 14.1924 21.1309 14.492 20.7229C15.1423 19.8374 15.7852 18.962 16.6869 18.2729Z" fill="#0E8784"/>
</g>
<defs>
<filter id="filter0_d_0_1592" x="0" y="0" width="32" height="32" filterUnits="userSpaceOnUse" color-interpolation-filters="sRGB">
<feFlood flood-opacity="0" result="BackgroundImageFix"/>
<feColorMatrix in="SourceAlpha" type="matrix" values="0 0 0 0 0 0 0 0 0 0 0 0 0 0 0 0 0 0 127 0" result="hardAlpha"/>
<feOffset dy="4"/>
<feGaussianBlur stdDeviation="2"/>
<feComposite in2="hardAlpha" operator="out"/>
<feColorMatrix type="matrix" values="0 0 0 0 0 0 0 0 0 0 0 0 0 0 0 0 0 0 0.25 0"/>
<feBlend mode="normal" in2="BackgroundImageFix" result="effect1_dropShadow_0_1592"/>
<feBlend mode="normal" in="SourceGraphic" in2="effect1_dropShadow_0_1592" result="shape"/>
</filter>
</defs>
</svg>
